<svg xmlns="http://www.w3.org/2000/svg" xmlns:xlink="http://www.w3.org/1999/xlink" width="500" zoomAndPan="magnify" viewBox="0 0 375 374.999991" height="500" preserveAspectRatio="xMidYMid meet" version="1.0"><defs><g/><clipPath id="15900f5de9"><path d="M 84.347656 110.617188 L 290.597656 110.617188 L 290.597656 206.558594 L 84.347656 206.558594 Z M 84.347656 110.617188 " clip-rule="nonzero"/></clipPath></defs><g clip-path="url(#15900f5de9)"><path fill="#0155b5" d="M 157.328125 183.179688 C 165.359375 191.214844 176.046875 195.636719 187.410156 195.636719 L 219.667969 195.640625 C 227.4375 202.535156 237.4375 206.328125 247.867188 206.328125 C 271.328125 206.328125 290.40625 187.242188 290.40625 163.785156 C 290.40625 152.421875 285.984375 141.738281 277.949219 133.703125 C 269.914062 125.667969 259.230469 121.242188 247.867188 121.242188 L 215.605469 121.238281 C 207.832031 114.347656 197.835938 110.558594 187.410156 110.558594 C 163.949219 110.558594 144.867188 129.644531 144.867188 153.097656 C 144.867188 164.460938 149.292969 175.144531 157.328125 183.179688 Z M 156.988281 153.097656 C 156.988281 136.324219 170.636719 122.683594 187.402344 122.683594 C 195.527344 122.683594 203.164062 125.847656 208.914062 131.59375 C 210.058594 132.738281 211.578125 133.367188 213.199219 133.367188 L 247.859375 133.371094 C 255.988281 133.371094 263.621094 136.535156 269.367188 142.28125 C 275.113281 148.027344 278.277344 155.664062 278.277344 163.789062 C 278.277344 180.5625 264.632812 194.210938 247.863281 194.210938 C 239.742188 194.210938 232.101562 191.046875 226.355469 185.300781 C 225.210938 184.152344 223.6875 183.523438 222.070312 183.523438 L 187.410156 183.519531 C 179.285156 183.519531 171.648438 180.355469 165.898438 174.609375 C 160.152344 168.863281 156.988281 161.226562 156.988281 153.097656 Z M 222.804688 179.101562 L 205.140625 179.101562 L 207.398438 177.25 C 208.222656 176.582031 209.011719 175.863281 209.753906 175.121094 C 215.683594 169.191406 218.945312 161.3125 218.945312 152.929688 C 218.945312 148.152344 217.890625 143.558594 215.816406 139.28125 L 215.09375 137.785156 L 228.757812 137.785156 L 229 138.484375 C 230.628906 143.140625 231.453125 148.003906 231.453125 152.933594 C 231.453125 162.269531 228.566406 171.171875 223.109375 178.675781 Z M 84.570312 163.785156 C 84.570312 152.421875 88.992188 141.738281 97.027344 133.703125 C 105.0625 125.667969 115.746094 121.246094 127.109375 121.246094 L 152.011719 121.242188 L 150.652344 122.894531 C 148.164062 125.917969 146.046875 129.25 144.371094 132.785156 L 144.097656 133.363281 L 127.109375 133.363281 C 118.980469 133.363281 111.34375 136.527344 105.601562 142.269531 C 99.855469 148.015625 96.695312 155.652344 96.695312 163.777344 C 96.695312 180.550781 110.339844 194.195312 127.109375 194.195312 C 135.234375 194.195312 142.871094 191.03125 148.617188 185.285156 C 149.105469 184.796875 149.679688 184.398438 150.320312 184.09375 L 151.011719 183.769531 L 151.511719 184.34375 C 152.246094 185.179688 153 185.988281 153.753906 186.742188 C 156.441406 189.433594 159.441406 191.796875 162.660156 193.761719 L 165.722656 195.632812 L 155.304688 195.632812 C 147.535156 202.527344 137.535156 206.320312 127.105469 206.320312 C 103.65625 206.328125 84.570312 187.246094 84.570312 163.785156 Z M 84.570312 163.785156 " fill-opacity="1" fill-rule="nonzero"/></g><g fill="#2b317f" fill-opacity="1"><g transform="translate(123.643231, 243.758641)"><g><path d="M 14.640625 0 L 7.09375 -9.25 L 6.453125 -9.25 L 6.453125 0 L 1.984375 0 L 1.984375 -20.25 L 6.453125 -20.25 L 6.453125 -13.09375 L 7.21875 -13.09375 L 13.84375 -20.25 L 19.578125 -20.25 L 10.828125 -11.234375 L 20.59375 0 Z M 14.640625 0 "/></g></g></g><g fill="#2b317f" fill-opacity="1"><g transform="translate(142.982018, 243.758641)"><g><path d="M 18.1875 -20.25 L 11.140625 -9.546875 L 11.140625 0 L 6.6875 0 L 6.6875 -9.515625 L -0.4375 -20.25 L 4.59375 -20.25 L 8.90625 -13.40625 L 13.234375 -20.25 Z M 18.1875 -20.25 "/></g></g></g><g fill="#2b317f" fill-opacity="1"><g transform="translate(160.228299, 243.758641)"><g><path d="M 11.640625 0.265625 C 10.203125 0.265625 8.859375 0 7.609375 -0.53125 C 6.359375 -1.070312 5.253906 -1.820312 4.296875 -2.78125 C 3.347656 -3.738281 2.601562 -4.84375 2.0625 -6.09375 C 1.519531 -7.34375 1.25 -8.6875 1.25 -10.125 C 1.25 -11.5625 1.519531 -12.90625 2.0625 -14.15625 C 2.601562 -15.40625 3.347656 -16.507812 4.296875 -17.46875 C 5.253906 -18.425781 6.359375 -19.171875 7.609375 -19.703125 C 8.859375 -20.242188 10.203125 -20.515625 11.640625 -20.515625 C 13.640625 -20.515625 15.460938 -20.003906 17.109375 -18.984375 C 18.753906 -17.960938 20.003906 -16.617188 20.859375 -14.953125 L 17.015625 -12.953125 C 16.515625 -13.921875 15.789062 -14.695312 14.84375 -15.28125 C 13.90625 -15.875 12.835938 -16.171875 11.640625 -16.171875 C 10.515625 -16.171875 9.492188 -15.90625 8.578125 -15.375 C 7.671875 -14.84375 6.953125 -14.117188 6.421875 -13.203125 C 5.898438 -12.296875 5.640625 -11.269531 5.640625 -10.125 C 5.640625 -8.976562 5.898438 -7.945312 6.421875 -7.03125 C 6.953125 -6.125 7.671875 -5.40625 8.578125 -4.875 C 9.492188 -4.34375 10.515625 -4.078125 11.640625 -4.078125 C 12.835938 -4.078125 13.90625 -4.367188 14.84375 -4.953125 C 15.789062 -5.546875 16.515625 -6.328125 17.015625 -7.296875 L 20.859375 -5.296875 C 20.003906 -3.648438 18.753906 -2.3125 17.109375 -1.28125 C 15.460938 -0.25 13.640625 0.265625 11.640625 0.265625 Z M 11.640625 0.265625 "/></g></g></g><g fill="#2b317f" fill-opacity="1"><g transform="translate(181.423342, 243.758641)"><g><path d="M 14.6875 -20.25 L 19.109375 -20.25 L 19.109375 0 L 14.6875 0 L 14.6875 -8.171875 L 6.453125 -8.171875 L 6.453125 0 L 1.984375 0 L 1.984375 -20.25 L 6.453125 -20.25 L 6.453125 -12.109375 L 14.6875 -12.109375 Z M 14.6875 -20.25 "/></g></g></g><g fill="#2b317f" fill-opacity="1"><g transform="translate(202.010873, 243.758641)"><g><path d="M 14.375 0 L 13.125 -3.8125 L 5.5625 -3.8125 L 4.3125 0 L -0.4375 0 L 6.84375 -20.25 L 11.84375 -20.25 L 19.140625 0 Z M 6.75 -7.53125 L 11.953125 -7.53125 L 9.34375 -15.5625 Z M 6.75 -7.53125 "/></g></g></g><g fill="#2b317f" fill-opacity="1"><g transform="translate(220.168406, 243.758641)"><g><path d="M 2.15625 0 L 2.15625 -20.25 L 6.609375 -20.25 L 6.609375 0 Z M 2.15625 0 "/></g></g></g><g fill="#2b317f" fill-opacity="1"><g transform="translate(228.369665, 243.758641)"><g><path d="M 16.53125 -20.25 L 20.953125 -20.25 L 20.953125 0 L 16.375 0 L 6.453125 -13.4375 L 6.453125 0 L 1.984375 0 L 1.984375 -20.25 L 6.578125 -20.25 L 16.53125 -6.84375 Z M 16.53125 -20.25 "/></g></g></g><g fill="#2b317f" fill-opacity="1"><g transform="translate(118.052084, 261.508459)"><g><path d="M 3.1875 -7.046875 C 3.96875 -7.046875 4.566406 -6.847656 4.984375 -6.453125 C 5.398438 -6.054688 5.648438 -5.53125 5.734375 -4.875 L 4.3125 -4.875 C 4.28125 -5.226562 4.160156 -5.503906 3.953125 -5.703125 C 3.753906 -5.910156 3.476562 -6.015625 3.125 -6.015625 C 2.84375 -6.015625 2.609375 -5.941406 2.421875 -5.796875 C 2.242188 -5.660156 2.15625 -5.457031 2.15625 -5.1875 C 2.15625 -4.894531 2.265625 -4.664062 2.484375 -4.5 C 2.703125 -4.332031 3.082031 -4.1875 3.625 -4.0625 C 4.382812 -3.882812 4.941406 -3.617188 5.296875 -3.265625 C 5.648438 -2.910156 5.828125 -2.457031 5.828125 -1.90625 C 5.828125 -1.269531 5.578125 -0.769531 5.078125 -0.40625 C 4.585938 -0.0390625 3.988281 0.140625 3.28125 0.140625 C 2.4375 0.140625 1.765625 -0.0390625 1.265625 -0.40625 C 0.765625 -0.78125 0.484375 -1.328125 0.421875 -2.046875 L 1.828125 -2.046875 C 1.898438 -1.671875 2.066406 -1.382812 2.328125 -1.1875 C 2.585938 -0.988281 2.898438 -0.890625 3.265625 -0.890625 C 3.578125 -0.890625 3.84375 -0.96875 4.0625 -1.125 C 4.28125 -1.289062 4.390625 -1.503906 4.390625 -1.765625 C 4.390625 -2.054688 4.285156 -2.289062 4.078125 -2.46875 C 3.867188 -2.644531 3.515625 -2.796875 3.015625 -2.921875 C 2.234375 -3.109375 1.648438 -3.351562 1.265625 -3.65625 C 0.890625 -3.96875 0.703125 -4.421875 0.703125 -5.015625 C 0.703125 -5.628906 0.941406 -6.117188 1.421875 -6.484375 C 1.910156 -6.859375 2.5 -7.046875 3.1875 -7.046875 Z M 3.1875 -7.046875 "/></g></g></g><g fill="#2b317f" fill-opacity="1"><g transform="translate(125.329682, 261.508459)"><g><path d="M 5.875 -1.09375 L 5.875 0 L 0.890625 0 L 0.890625 -6.90625 L 5.765625 -6.90625 L 5.765625 -5.8125 L 2.265625 -5.8125 L 2.265625 -4 L 5.515625 -4 L 5.515625 -2.90625 L 2.265625 -2.90625 L 2.265625 -1.09375 Z M 5.875 -1.09375 "/></g></g></g><g fill="#2b317f" fill-opacity="1"><g transform="translate(132.687252, 261.508459)"><g><path d="M 3.84375 -7.046875 C 4.75 -7.046875 5.453125 -6.828125 5.953125 -6.390625 C 6.460938 -5.953125 6.753906 -5.375 6.828125 -4.65625 L 6.84375 -4.5625 L 5.453125 -4.5625 L 5.4375 -4.65625 C 5.257812 -5.5625 4.722656 -6.015625 3.828125 -6.015625 C 3.265625 -6.015625 2.8125 -5.785156 2.46875 -5.328125 C 2.132812 -4.878906 1.96875 -4.265625 1.96875 -3.484375 C 1.96875 -2.648438 2.132812 -2.007812 2.46875 -1.5625 C 2.8125 -1.113281 3.257812 -0.890625 3.8125 -0.890625 C 4.25 -0.890625 4.597656 -1.007812 4.859375 -1.25 C 5.128906 -1.5 5.3125 -1.847656 5.40625 -2.296875 L 5.4375 -2.390625 L 6.796875 -2.390625 L 6.796875 -2.296875 C 6.722656 -1.546875 6.414062 -0.953125 5.875 -0.515625 C 5.332031 -0.078125 4.625 0.140625 3.75 0.140625 C 2.78125 0.140625 2 -0.175781 1.40625 -0.8125 C 0.8125 -1.457031 0.515625 -2.320312 0.515625 -3.40625 C 0.515625 -4.507812 0.828125 -5.390625 1.453125 -6.046875 C 2.078125 -6.710938 2.875 -7.046875 3.84375 -7.046875 Z M 3.84375 -7.046875 "/></g></g></g><g fill="#2b317f" fill-opacity="1"><g transform="translate(141.064423, 261.508459)"><g><path d="M 6.484375 -6.90625 L 6.484375 -2.8125 C 6.484375 -2.476562 6.476562 -2.207031 6.46875 -2 C 6.425781 -1.375 6.171875 -0.859375 5.703125 -0.453125 C 5.242188 -0.0546875 4.5625 0.140625 3.65625 0.140625 C 2.738281 0.140625 2.046875 -0.0546875 1.578125 -0.453125 C 1.117188 -0.859375 0.863281 -1.375 0.8125 -2 C 0.800781 -2.207031 0.796875 -2.476562 0.796875 -2.8125 L 0.796875 -6.90625 L 2.171875 -6.90625 L 2.171875 -2.671875 C 2.171875 -2.429688 2.175781 -2.265625 2.1875 -2.171875 C 2.21875 -1.765625 2.351562 -1.445312 2.59375 -1.21875 C 2.84375 -1 3.195312 -0.890625 3.65625 -0.890625 C 4.09375 -0.890625 4.429688 -1 4.671875 -1.21875 C 4.921875 -1.445312 5.0625 -1.765625 5.09375 -2.171875 C 5.113281 -2.265625 5.125 -2.429688 5.125 -2.671875 L 5.125 -6.90625 Z M 6.484375 -6.90625 "/></g></g></g><g fill="#2b317f" fill-opacity="1"><g transform="translate(149.281649, 261.508459)"><g><path d="M 5.890625 -1.734375 C 5.972656 -0.921875 6.140625 -0.34375 6.390625 0 L 4.875 0 C 4.707031 -0.457031 4.597656 -0.972656 4.546875 -1.546875 C 4.453125 -2.316406 4.140625 -2.722656 3.609375 -2.765625 C 3.484375 -2.773438 3.300781 -2.78125 3.0625 -2.78125 L 2.265625 -2.78125 L 2.265625 0 L 0.890625 0 L 0.890625 -6.90625 L 3.40625 -6.90625 C 3.789062 -6.90625 4.125 -6.882812 4.40625 -6.84375 C 4.957031 -6.78125 5.394531 -6.597656 5.71875 -6.296875 C 6.050781 -6.003906 6.21875 -5.578125 6.21875 -5.015625 C 6.21875 -4.585938 6.097656 -4.226562 5.859375 -3.9375 C 5.617188 -3.65625 5.289062 -3.457031 4.875 -3.34375 C 5.46875 -3.113281 5.804688 -2.578125 5.890625 -1.734375 Z M 2.265625 -3.8125 L 3.21875 -3.8125 C 3.488281 -3.8125 3.675781 -3.8125 3.78125 -3.8125 C 4.4375 -3.875 4.765625 -4.207031 4.765625 -4.8125 C 4.765625 -5.125 4.6875 -5.351562 4.53125 -5.5 C 4.375 -5.65625 4.148438 -5.753906 3.859375 -5.796875 C 3.703125 -5.804688 3.507812 -5.8125 3.28125 -5.8125 L 2.265625 -5.8125 Z M 2.265625 -3.8125 "/></g></g></g><g fill="#2b317f" fill-opacity="1"><g transform="translate(157.019071, 261.508459)"><g><path d="M 5.875 -1.09375 L 5.875 0 L 0.890625 0 L 0.890625 -6.90625 L 5.765625 -6.90625 L 5.765625 -5.8125 L 2.265625 -5.8125 L 2.265625 -4 L 5.515625 -4 L 5.515625 -2.90625 L 2.265625 -2.90625 L 2.265625 -1.09375 Z M 5.875 -1.09375 "/></g></g></g><g fill="#2b317f" fill-opacity="1"><g transform="translate(164.37664, 261.508459)"><g/></g></g><g fill="#2b317f" fill-opacity="1"><g transform="translate(167.515871, 261.508459)"><g><path d="M 3.96875 -2.671875 L 3.96875 0 L 2.59375 0 L 2.59375 -2.671875 L 0.15625 -6.90625 L 1.71875 -6.90625 L 3.328125 -3.890625 L 4.890625 -6.90625 L 6.40625 -6.90625 Z M 3.96875 -2.671875 "/></g></g></g><g fill="#2b317f" fill-opacity="1"><g transform="translate(174.973396, 261.508459)"><g><path d="M 3.921875 -7.046875 C 4.972656 -7.046875 5.800781 -6.71875 6.40625 -6.0625 C 7.019531 -5.414062 7.328125 -4.546875 7.328125 -3.453125 C 7.328125 -2.359375 7.019531 -1.484375 6.40625 -0.828125 C 5.800781 -0.179688 4.972656 0.140625 3.921875 0.140625 C 2.867188 0.140625 2.035156 -0.179688 1.421875 -0.828125 C 0.816406 -1.484375 0.515625 -2.359375 0.515625 -3.453125 C 0.515625 -4.546875 0.816406 -5.414062 1.421875 -6.0625 C 2.023438 -6.71875 2.859375 -7.046875 3.921875 -7.046875 Z M 2.46875 -1.5625 C 2.820312 -1.113281 3.304688 -0.890625 3.921875 -0.890625 C 4.535156 -0.890625 5.015625 -1.113281 5.359375 -1.5625 C 5.703125 -2.019531 5.875 -2.648438 5.875 -3.453125 C 5.875 -4.253906 5.703125 -4.878906 5.359375 -5.328125 C 5.015625 -5.785156 4.535156 -6.015625 3.921875 -6.015625 C 3.296875 -6.015625 2.8125 -5.785156 2.46875 -5.328125 C 2.125 -4.878906 1.953125 -4.25 1.953125 -3.4375 C 1.953125 -2.632812 2.125 -2.007812 2.46875 -1.5625 Z M 2.46875 -1.5625 "/></g></g></g><g fill="#2b317f" fill-opacity="1"><g transform="translate(183.820382, 261.508459)"><g><path d="M 6.484375 -6.90625 L 6.484375 -2.8125 C 6.484375 -2.476562 6.476562 -2.207031 6.46875 -2 C 6.425781 -1.375 6.171875 -0.859375 5.703125 -0.453125 C 5.242188 -0.0546875 4.5625 0.140625 3.65625 0.140625 C 2.738281 0.140625 2.046875 -0.0546875 1.578125 -0.453125 C 1.117188 -0.859375 0.863281 -1.375 0.8125 -2 C 0.800781 -2.207031 0.796875 -2.476562 0.796875 -2.8125 L 0.796875 -6.90625 L 2.171875 -6.90625 L 2.171875 -2.671875 C 2.171875 -2.429688 2.175781 -2.265625 2.1875 -2.171875 C 2.21875 -1.765625 2.351562 -1.445312 2.59375 -1.21875 C 2.84375 -1 3.195312 -0.890625 3.65625 -0.890625 C 4.09375 -0.890625 4.429688 -1 4.671875 -1.21875 C 4.921875 -1.445312 5.0625 -1.765625 5.09375 -2.171875 C 5.113281 -2.265625 5.125 -2.429688 5.125 -2.671875 L 5.125 -6.90625 Z M 6.484375 -6.90625 "/></g></g></g><g fill="#2b317f" fill-opacity="1"><g transform="translate(192.037612, 261.508459)"><g><path d="M 5.890625 -1.734375 C 5.972656 -0.921875 6.140625 -0.34375 6.390625 0 L 4.875 0 C 4.707031 -0.457031 4.597656 -0.972656 4.546875 -1.546875 C 4.453125 -2.316406 4.140625 -2.722656 3.609375 -2.765625 C 3.484375 -2.773438 3.300781 -2.78125 3.0625 -2.78125 L 2.265625 -2.78125 L 2.265625 0 L 0.890625 0 L 0.890625 -6.90625 L 3.40625 -6.90625 C 3.789062 -6.90625 4.125 -6.882812 4.40625 -6.84375 C 4.957031 -6.78125 5.394531 -6.597656 5.71875 -6.296875 C 6.050781 -6.003906 6.21875 -5.578125 6.21875 -5.015625 C 6.21875 -4.585938 6.097656 -4.226562 5.859375 -3.9375 C 5.617188 -3.65625 5.289062 -3.457031 4.875 -3.34375 C 5.46875 -3.113281 5.804688 -2.578125 5.890625 -1.734375 Z M 2.265625 -3.8125 L 3.21875 -3.8125 C 3.488281 -3.8125 3.675781 -3.8125 3.78125 -3.8125 C 4.4375 -3.875 4.765625 -4.207031 4.765625 -4.8125 C 4.765625 -5.125 4.6875 -5.351562 4.53125 -5.5 C 4.375 -5.65625 4.148438 -5.753906 3.859375 -5.796875 C 3.703125 -5.804688 3.507812 -5.8125 3.28125 -5.8125 L 2.265625 -5.8125 Z M 2.265625 -3.8125 "/></g></g></g><g fill="#2b317f" fill-opacity="1"><g transform="translate(199.775036, 261.508459)"><g/></g></g><g fill="#2b317f" fill-opacity="1"><g transform="translate(202.91427, 261.508459)"><g><path d="M 2.265625 0 L 0.890625 0 L 0.890625 -6.90625 L 2.265625 -6.90625 Z M 2.265625 0 "/></g></g></g><g fill="#2b317f" fill-opacity="1"><g transform="translate(207.033119, 261.508459)"><g><path d="M 4.15625 -6.859375 C 5.007812 -6.753906 5.691406 -6.425781 6.203125 -5.875 C 6.722656 -5.320312 6.984375 -4.546875 6.984375 -3.546875 C 6.984375 -2.523438 6.71875 -1.707031 6.1875 -1.09375 C 5.65625 -0.488281 4.96875 -0.140625 4.125 -0.046875 C 3.894531 -0.015625 3.601562 0 3.25 0 L 0.890625 0 L 0.890625 -6.90625 L 3.265625 -6.90625 C 3.617188 -6.90625 3.914062 -6.890625 4.15625 -6.859375 Z M 3.8125 -1.125 C 4.34375 -1.1875 4.757812 -1.425781 5.0625 -1.84375 C 5.375 -2.269531 5.53125 -2.828125 5.53125 -3.515625 C 5.53125 -4.179688 5.378906 -4.707031 5.078125 -5.09375 C 4.773438 -5.488281 4.363281 -5.71875 3.84375 -5.78125 C 3.644531 -5.800781 3.398438 -5.8125 3.109375 -5.8125 L 2.265625 -5.8125 L 2.265625 -1.09375 L 3.09375 -1.09375 C 3.425781 -1.09375 3.664062 -1.101562 3.8125 -1.125 Z M 3.8125 -1.125 "/></g></g></g><g fill="#2b317f" fill-opacity="1"><g transform="translate(215.540233, 261.508459)"><g><path d="M 5.875 -1.09375 L 5.875 0 L 0.890625 0 L 0.890625 -6.90625 L 5.765625 -6.90625 L 5.765625 -5.8125 L 2.265625 -5.8125 L 2.265625 -4 L 5.515625 -4 L 5.515625 -2.90625 L 2.265625 -2.90625 L 2.265625 -1.09375 Z M 5.875 -1.09375 "/></g></g></g><g fill="#2b317f" fill-opacity="1"><g transform="translate(222.897799, 261.508459)"><g><path d="M 6.953125 0 L 5.0625 0 L 2.21875 -5.234375 C 2.25 -4.609375 2.265625 -3.90625 2.265625 -3.125 L 2.265625 0 L 0.890625 0 L 0.890625 -6.90625 L 2.71875 -6.90625 L 5.625 -1.5625 C 5.582031 -2.175781 5.5625 -2.898438 5.5625 -3.734375 L 5.5625 -6.90625 L 6.9375 -6.90625 Z M 6.953125 0 "/></g></g></g><g fill="#2b317f" fill-opacity="1"><g transform="translate(231.694792, 261.508459)"><g><path d="M 6.296875 -5.8125 L 3.953125 -5.8125 L 3.953125 0 L 2.5625 0 L 2.5625 -5.8125 L 0.234375 -5.8125 L 0.234375 -6.90625 L 6.296875 -6.90625 Z M 6.296875 -5.8125 "/></g></g></g><g fill="#2b317f" fill-opacity="1"><g transform="translate(239.122327, 261.508459)"><g><path d="M 2.265625 0 L 0.890625 0 L 0.890625 -6.90625 L 2.265625 -6.90625 Z M 2.265625 0 "/></g></g></g><g fill="#2b317f" fill-opacity="1"><g transform="translate(243.24117, 261.508459)"><g><path d="M 6.296875 -5.8125 L 3.953125 -5.8125 L 3.953125 0 L 2.5625 0 L 2.5625 -5.8125 L 0.234375 -5.8125 L 0.234375 -6.90625 L 6.296875 -6.90625 Z M 6.296875 -5.8125 "/></g></g></g><g fill="#2b317f" fill-opacity="1"><g transform="translate(250.668705, 261.508459)"><g><path d="M 3.96875 -2.671875 L 3.96875 0 L 2.59375 0 L 2.59375 -2.671875 L 0.15625 -6.90625 L 1.71875 -6.90625 L 3.328125 -3.890625 L 4.890625 -6.90625 L 6.40625 -6.90625 Z M 3.96875 -2.671875 "/></g></g></g></svg>